<mxfile host="app.diagrams.net" modified="2023-10-12T17:23:24.589Z" agent="Mozilla/5.0 (Windows NT 10.0; Win64; x64) AppleWebKit/537.36 (KHTML, like Gecko) Chrome/118.0.0.0 Safari/537.36" etag="BRIa4X_FeQZg9Rmv65F9" version="22.0.4" type="github">
  <diagram id="C5RBs43oDa-KdzZeNtuy" name="Page-1">
    <mxGraphModel dx="1050" dy="1703" grid="1" gridSize="10" guides="1" tooltips="1" connect="1" arrows="1" fold="1" page="1" pageScale="1" pageWidth="827" pageHeight="1169" math="0" shadow="0">
      <root>
        <mxCell id="WIyWlLk6GJQsqaUBKTNV-0" />
        <mxCell id="WIyWlLk6GJQsqaUBKTNV-1" parent="WIyWlLk6GJQsqaUBKTNV-0" />
        <mxCell id="jqqegfg-72Zgi2-M542d-13" style="edgeStyle=orthogonalEdgeStyle;rounded=0;orthogonalLoop=1;jettySize=auto;html=1;exitX=0.5;exitY=1;exitDx=0;exitDy=0;entryX=0.5;entryY=0;entryDx=0;entryDy=0;" edge="1" parent="WIyWlLk6GJQsqaUBKTNV-1" source="PTo9T_ybOmnVNyDfLQTU-0" target="jqqegfg-72Zgi2-M542d-0">
          <mxGeometry relative="1" as="geometry" />
        </mxCell>
        <mxCell id="PTo9T_ybOmnVNyDfLQTU-0" value="&lt;b&gt;&lt;font style=&quot;font-size: 18px;&quot;&gt;START&lt;/font&gt;&lt;/b&gt;" style="rounded=1;whiteSpace=wrap;html=1;arcSize=50;" parent="WIyWlLk6GJQsqaUBKTNV-1" vertex="1">
          <mxGeometry x="160" y="-130" width="120" height="40" as="geometry" />
        </mxCell>
        <mxCell id="PTo9T_ybOmnVNyDfLQTU-1" value="&lt;span style=&quot;font-size: 18px;&quot;&gt;&lt;b&gt;END&lt;/b&gt;&lt;/span&gt;" style="rounded=1;whiteSpace=wrap;html=1;arcSize=50;" parent="WIyWlLk6GJQsqaUBKTNV-1" vertex="1">
          <mxGeometry x="160" y="480" width="120" height="40" as="geometry" />
        </mxCell>
        <mxCell id="jqqegfg-72Zgi2-M542d-14" style="edgeStyle=orthogonalEdgeStyle;rounded=0;orthogonalLoop=1;jettySize=auto;html=1;exitX=0.5;exitY=1;exitDx=0;exitDy=0;entryX=0.5;entryY=0;entryDx=0;entryDy=0;" edge="1" parent="WIyWlLk6GJQsqaUBKTNV-1" source="jqqegfg-72Zgi2-M542d-0" target="jqqegfg-72Zgi2-M542d-1">
          <mxGeometry relative="1" as="geometry" />
        </mxCell>
        <mxCell id="jqqegfg-72Zgi2-M542d-0" value="a, n, max: int" style="shape=parallelogram;perimeter=parallelogramPerimeter;whiteSpace=wrap;html=1;fixedSize=1;" vertex="1" parent="WIyWlLk6GJQsqaUBKTNV-1">
          <mxGeometry x="160" y="-50" width="120" height="40" as="geometry" />
        </mxCell>
        <mxCell id="jqqegfg-72Zgi2-M542d-15" style="edgeStyle=orthogonalEdgeStyle;rounded=0;orthogonalLoop=1;jettySize=auto;html=1;exitX=0.5;exitY=1;exitDx=0;exitDy=0;entryX=0.5;entryY=0;entryDx=0;entryDy=0;" edge="1" parent="WIyWlLk6GJQsqaUBKTNV-1" source="jqqegfg-72Zgi2-M542d-1">
          <mxGeometry relative="1" as="geometry">
            <mxPoint x="220" y="110" as="targetPoint" />
          </mxGeometry>
        </mxCell>
        <mxCell id="jqqegfg-72Zgi2-M542d-1" value="a = 1" style="shape=hexagon;perimeter=hexagonPerimeter2;whiteSpace=wrap;html=1;fixedSize=1;" vertex="1" parent="WIyWlLk6GJQsqaUBKTNV-1">
          <mxGeometry x="160" y="30" width="120" height="40" as="geometry" />
        </mxCell>
        <mxCell id="jqqegfg-72Zgi2-M542d-16" style="edgeStyle=orthogonalEdgeStyle;rounded=0;orthogonalLoop=1;jettySize=auto;html=1;exitX=0.5;exitY=1;exitDx=0;exitDy=0;entryX=0.5;entryY=0;entryDx=0;entryDy=0;" edge="1" parent="WIyWlLk6GJQsqaUBKTNV-1" source="jqqegfg-72Zgi2-M542d-2" target="jqqegfg-72Zgi2-M542d-3">
          <mxGeometry relative="1" as="geometry" />
        </mxCell>
        <mxCell id="jqqegfg-72Zgi2-M542d-18" style="edgeStyle=orthogonalEdgeStyle;rounded=0;orthogonalLoop=1;jettySize=auto;html=1;exitX=1;exitY=0.5;exitDx=0;exitDy=0;entryX=0;entryY=0.5;entryDx=0;entryDy=0;" edge="1" parent="WIyWlLk6GJQsqaUBKTNV-1" source="jqqegfg-72Zgi2-M542d-2" target="jqqegfg-72Zgi2-M542d-9">
          <mxGeometry relative="1" as="geometry" />
        </mxCell>
        <mxCell id="jqqegfg-72Zgi2-M542d-2" value="n &amp;gt; 0" style="rhombus;whiteSpace=wrap;html=1;" vertex="1" parent="WIyWlLk6GJQsqaUBKTNV-1">
          <mxGeometry x="180" y="280" width="80" height="80" as="geometry" />
        </mxCell>
        <mxCell id="jqqegfg-72Zgi2-M542d-17" style="edgeStyle=orthogonalEdgeStyle;rounded=0;orthogonalLoop=1;jettySize=auto;html=1;exitX=0.5;exitY=1;exitDx=0;exitDy=0;entryX=0.5;entryY=0;entryDx=0;entryDy=0;" edge="1" parent="WIyWlLk6GJQsqaUBKTNV-1" source="jqqegfg-72Zgi2-M542d-3" target="PTo9T_ybOmnVNyDfLQTU-1">
          <mxGeometry relative="1" as="geometry" />
        </mxCell>
        <mxCell id="jqqegfg-72Zgi2-M542d-3" value="&quot; Jumlah Bilangan Harus Lebih Dari 0.&quot;" style="shape=parallelogram;perimeter=parallelogramPerimeter;whiteSpace=wrap;html=1;fixedSize=1;" vertex="1" parent="WIyWlLk6GJQsqaUBKTNV-1">
          <mxGeometry x="97.5" y="400" width="245" height="40" as="geometry" />
        </mxCell>
        <mxCell id="jqqegfg-72Zgi2-M542d-23" style="edgeStyle=orthogonalEdgeStyle;rounded=0;orthogonalLoop=1;jettySize=auto;html=1;exitX=1;exitY=0.5;exitDx=0;exitDy=0;entryX=0;entryY=0.5;entryDx=0;entryDy=0;" edge="1" parent="WIyWlLk6GJQsqaUBKTNV-1" source="jqqegfg-72Zgi2-M542d-4" target="jqqegfg-72Zgi2-M542d-5">
          <mxGeometry relative="1" as="geometry" />
        </mxCell>
        <mxCell id="jqqegfg-72Zgi2-M542d-4" value="&quot; Masukan Bilangan = &quot;" style="shape=parallelogram;perimeter=parallelogramPerimeter;whiteSpace=wrap;html=1;fixedSize=1;" vertex="1" parent="WIyWlLk6GJQsqaUBKTNV-1">
          <mxGeometry x="880" y="290" width="157" height="60" as="geometry" />
        </mxCell>
        <mxCell id="jqqegfg-72Zgi2-M542d-24" style="edgeStyle=orthogonalEdgeStyle;rounded=0;orthogonalLoop=1;jettySize=auto;html=1;exitX=1;exitY=0.5;exitDx=0;exitDy=0;entryX=0;entryY=0.5;entryDx=0;entryDy=0;" edge="1" parent="WIyWlLk6GJQsqaUBKTNV-1" source="jqqegfg-72Zgi2-M542d-5" target="jqqegfg-72Zgi2-M542d-6">
          <mxGeometry relative="1" as="geometry" />
        </mxCell>
        <mxCell id="jqqegfg-72Zgi2-M542d-5" value="bilangan" style="shape=parallelogram;perimeter=parallelogramPerimeter;whiteSpace=wrap;html=1;fixedSize=1;" vertex="1" parent="WIyWlLk6GJQsqaUBKTNV-1">
          <mxGeometry x="1080" y="290" width="120" height="60" as="geometry" />
        </mxCell>
        <mxCell id="jqqegfg-72Zgi2-M542d-25" style="edgeStyle=orthogonalEdgeStyle;rounded=0;orthogonalLoop=1;jettySize=auto;html=1;exitX=1;exitY=0.5;exitDx=0;exitDy=0;entryX=0;entryY=0.5;entryDx=0;entryDy=0;" edge="1" parent="WIyWlLk6GJQsqaUBKTNV-1" source="jqqegfg-72Zgi2-M542d-6" target="jqqegfg-72Zgi2-M542d-7">
          <mxGeometry relative="1" as="geometry" />
        </mxCell>
        <mxCell id="jqqegfg-72Zgi2-M542d-6" value="a &lt;span style=&quot;font-size: 11pt; line-height: 107%; font-family: Wingdings;&quot; lang=&quot;EN-US&quot;&gt;ÃŸ&lt;/span&gt;&lt;span style=&quot;font-size:11.0pt;line-height:107%;font-family:&amp;quot;Times New Roman&amp;quot;,serif;&lt;br/&gt;mso-fareast-font-family:Calibri;mso-fareast-theme-font:minor-latin;mso-ansi-language:&lt;br/&gt;EN-US;mso-fareast-language:EN-US;mso-bidi-language:AR-SA&quot; lang=&quot;EN-US&quot;&gt; a + 1&lt;/span&gt;" style="rounded=0;whiteSpace=wrap;html=1;" vertex="1" parent="WIyWlLk6GJQsqaUBKTNV-1">
          <mxGeometry x="1240" y="290" width="120" height="60" as="geometry" />
        </mxCell>
        <mxCell id="jqqegfg-72Zgi2-M542d-26" style="edgeStyle=orthogonalEdgeStyle;rounded=0;orthogonalLoop=1;jettySize=auto;html=1;exitX=1;exitY=0.5;exitDx=0;exitDy=0;entryX=0;entryY=0.5;entryDx=0;entryDy=0;" edge="1" parent="WIyWlLk6GJQsqaUBKTNV-1" source="jqqegfg-72Zgi2-M542d-7" target="jqqegfg-72Zgi2-M542d-8">
          <mxGeometry relative="1" as="geometry" />
        </mxCell>
        <mxCell id="jqqegfg-72Zgi2-M542d-27" style="edgeStyle=orthogonalEdgeStyle;rounded=0;orthogonalLoop=1;jettySize=auto;html=1;exitX=0.5;exitY=1;exitDx=0;exitDy=0;entryX=1;entryY=0.5;entryDx=0;entryDy=0;" edge="1" parent="WIyWlLk6GJQsqaUBKTNV-1" source="jqqegfg-72Zgi2-M542d-7" target="PTo9T_ybOmnVNyDfLQTU-1">
          <mxGeometry relative="1" as="geometry">
            <mxPoint x="860" y="500" as="targetPoint" />
            <Array as="points">
              <mxPoint x="1460" y="500" />
            </Array>
          </mxGeometry>
        </mxCell>
        <mxCell id="jqqegfg-72Zgi2-M542d-7" value="bilangan &amp;gt; max" style="rhombus;whiteSpace=wrap;html=1;" vertex="1" parent="WIyWlLk6GJQsqaUBKTNV-1">
          <mxGeometry x="1400" y="280" width="120" height="80" as="geometry" />
        </mxCell>
        <mxCell id="jqqegfg-72Zgi2-M542d-28" style="edgeStyle=orthogonalEdgeStyle;rounded=0;orthogonalLoop=1;jettySize=auto;html=1;exitX=0.5;exitY=0;exitDx=0;exitDy=0;" edge="1" parent="WIyWlLk6GJQsqaUBKTNV-1" source="jqqegfg-72Zgi2-M542d-8">
          <mxGeometry relative="1" as="geometry">
            <mxPoint x="720" y="320" as="targetPoint" />
            <Array as="points">
              <mxPoint x="1620" y="270" />
              <mxPoint x="720" y="270" />
            </Array>
          </mxGeometry>
        </mxCell>
        <mxCell id="jqqegfg-72Zgi2-M542d-8" value="max = bilangan" style="rounded=0;whiteSpace=wrap;html=1;" vertex="1" parent="WIyWlLk6GJQsqaUBKTNV-1">
          <mxGeometry x="1560" y="290" width="120" height="60" as="geometry" />
        </mxCell>
        <mxCell id="jqqegfg-72Zgi2-M542d-19" style="edgeStyle=orthogonalEdgeStyle;rounded=0;orthogonalLoop=1;jettySize=auto;html=1;exitX=1;exitY=0.5;exitDx=0;exitDy=0;entryX=0;entryY=0.5;entryDx=0;entryDy=0;" edge="1" parent="WIyWlLk6GJQsqaUBKTNV-1" source="jqqegfg-72Zgi2-M542d-9" target="jqqegfg-72Zgi2-M542d-10">
          <mxGeometry relative="1" as="geometry" />
        </mxCell>
        <mxCell id="jqqegfg-72Zgi2-M542d-9" value="&quot; Masukan Bilangan = &quot;" style="shape=parallelogram;perimeter=parallelogramPerimeter;whiteSpace=wrap;html=1;fixedSize=1;" vertex="1" parent="WIyWlLk6GJQsqaUBKTNV-1">
          <mxGeometry x="360" y="290" width="157" height="60" as="geometry" />
        </mxCell>
        <mxCell id="jqqegfg-72Zgi2-M542d-20" style="edgeStyle=orthogonalEdgeStyle;rounded=0;orthogonalLoop=1;jettySize=auto;html=1;exitX=1;exitY=0.5;exitDx=0;exitDy=0;entryX=0;entryY=0.5;entryDx=0;entryDy=0;" edge="1" parent="WIyWlLk6GJQsqaUBKTNV-1" source="jqqegfg-72Zgi2-M542d-10" target="jqqegfg-72Zgi2-M542d-11">
          <mxGeometry relative="1" as="geometry" />
        </mxCell>
        <mxCell id="jqqegfg-72Zgi2-M542d-10" value="max" style="shape=parallelogram;perimeter=parallelogramPerimeter;whiteSpace=wrap;html=1;fixedSize=1;" vertex="1" parent="WIyWlLk6GJQsqaUBKTNV-1">
          <mxGeometry x="560" y="290" width="120" height="60" as="geometry" />
        </mxCell>
        <mxCell id="jqqegfg-72Zgi2-M542d-21" style="edgeStyle=orthogonalEdgeStyle;rounded=0;orthogonalLoop=1;jettySize=auto;html=1;exitX=0.5;exitY=1;exitDx=0;exitDy=0;entryX=0.5;entryY=0;entryDx=0;entryDy=0;" edge="1" parent="WIyWlLk6GJQsqaUBKTNV-1" source="jqqegfg-72Zgi2-M542d-11" target="jqqegfg-72Zgi2-M542d-12">
          <mxGeometry relative="1" as="geometry" />
        </mxCell>
        <mxCell id="jqqegfg-72Zgi2-M542d-22" style="edgeStyle=orthogonalEdgeStyle;rounded=0;orthogonalLoop=1;jettySize=auto;html=1;exitX=1;exitY=0.5;exitDx=0;exitDy=0;entryX=0;entryY=0.5;entryDx=0;entryDy=0;" edge="1" parent="WIyWlLk6GJQsqaUBKTNV-1" source="jqqegfg-72Zgi2-M542d-11" target="jqqegfg-72Zgi2-M542d-4">
          <mxGeometry relative="1" as="geometry" />
        </mxCell>
        <mxCell id="jqqegfg-72Zgi2-M542d-11" value="a &amp;lt; n" style="rhombus;whiteSpace=wrap;html=1;" vertex="1" parent="WIyWlLk6GJQsqaUBKTNV-1">
          <mxGeometry x="740" y="280" width="80" height="80" as="geometry" />
        </mxCell>
        <mxCell id="jqqegfg-72Zgi2-M542d-29" style="edgeStyle=orthogonalEdgeStyle;rounded=0;orthogonalLoop=1;jettySize=auto;html=1;exitX=0.5;exitY=1;exitDx=0;exitDy=0;" edge="1" parent="WIyWlLk6GJQsqaUBKTNV-1" source="jqqegfg-72Zgi2-M542d-12">
          <mxGeometry relative="1" as="geometry">
            <mxPoint x="780" y="500" as="targetPoint" />
          </mxGeometry>
        </mxCell>
        <mxCell id="jqqegfg-72Zgi2-M542d-12" value="&quot; Nilai Tertingginya adalah = &quot;, max" style="shape=parallelogram;perimeter=parallelogramPerimeter;whiteSpace=wrap;html=1;fixedSize=1;" vertex="1" parent="WIyWlLk6GJQsqaUBKTNV-1">
          <mxGeometry x="660" y="400" width="240" height="40" as="geometry" />
        </mxCell>
        <mxCell id="jqqegfg-72Zgi2-M542d-30" value="&lt;b&gt;F&lt;/b&gt;" style="text;html=1;align=center;verticalAlign=middle;resizable=0;points=[];autosize=1;strokeColor=none;fillColor=none;" vertex="1" parent="WIyWlLk6GJQsqaUBKTNV-1">
          <mxGeometry x="190" y="360" width="30" height="30" as="geometry" />
        </mxCell>
        <mxCell id="jqqegfg-72Zgi2-M542d-31" value="&lt;b&gt;T&lt;/b&gt;" style="text;html=1;align=center;verticalAlign=middle;resizable=0;points=[];autosize=1;strokeColor=none;fillColor=none;" vertex="1" parent="WIyWlLk6GJQsqaUBKTNV-1">
          <mxGeometry x="260" y="290" width="30" height="30" as="geometry" />
        </mxCell>
        <mxCell id="jqqegfg-72Zgi2-M542d-32" value="&lt;b&gt;T&lt;/b&gt;" style="text;html=1;align=center;verticalAlign=middle;resizable=0;points=[];autosize=1;strokeColor=none;fillColor=none;" vertex="1" parent="WIyWlLk6GJQsqaUBKTNV-1">
          <mxGeometry x="820" y="290" width="30" height="30" as="geometry" />
        </mxCell>
        <mxCell id="jqqegfg-72Zgi2-M542d-34" value="&lt;b&gt;F&lt;/b&gt;" style="text;html=1;align=center;verticalAlign=middle;resizable=0;points=[];autosize=1;strokeColor=none;fillColor=none;" vertex="1" parent="WIyWlLk6GJQsqaUBKTNV-1">
          <mxGeometry x="750" y="360" width="30" height="30" as="geometry" />
        </mxCell>
        <mxCell id="jqqegfg-72Zgi2-M542d-35" value="&lt;b&gt;T&lt;/b&gt;" style="text;html=1;align=center;verticalAlign=middle;resizable=0;points=[];autosize=1;strokeColor=none;fillColor=none;" vertex="1" parent="WIyWlLk6GJQsqaUBKTNV-1">
          <mxGeometry x="1520" y="290" width="30" height="30" as="geometry" />
        </mxCell>
        <mxCell id="jqqegfg-72Zgi2-M542d-36" value="&lt;b&gt;F&lt;/b&gt;" style="text;html=1;align=center;verticalAlign=middle;resizable=0;points=[];autosize=1;strokeColor=none;fillColor=none;" vertex="1" parent="WIyWlLk6GJQsqaUBKTNV-1">
          <mxGeometry x="1430" y="360" width="30" height="30" as="geometry" />
        </mxCell>
        <mxCell id="jqqegfg-72Zgi2-M542d-40" style="edgeStyle=orthogonalEdgeStyle;rounded=0;orthogonalLoop=1;jettySize=auto;html=1;exitX=0.5;exitY=1;exitDx=0;exitDy=0;entryX=0.5;entryY=0;entryDx=0;entryDy=0;" edge="1" parent="WIyWlLk6GJQsqaUBKTNV-1" source="jqqegfg-72Zgi2-M542d-37" target="jqqegfg-72Zgi2-M542d-2">
          <mxGeometry relative="1" as="geometry" />
        </mxCell>
        <mxCell id="jqqegfg-72Zgi2-M542d-37" value="n" style="shape=parallelogram;perimeter=parallelogramPerimeter;whiteSpace=wrap;html=1;fixedSize=1;" vertex="1" parent="WIyWlLk6GJQsqaUBKTNV-1">
          <mxGeometry x="160" y="200" width="120" height="40" as="geometry" />
        </mxCell>
        <mxCell id="jqqegfg-72Zgi2-M542d-39" style="edgeStyle=orthogonalEdgeStyle;rounded=0;orthogonalLoop=1;jettySize=auto;html=1;exitX=0.5;exitY=1;exitDx=0;exitDy=0;entryX=0.5;entryY=0;entryDx=0;entryDy=0;" edge="1" parent="WIyWlLk6GJQsqaUBKTNV-1" source="jqqegfg-72Zgi2-M542d-38" target="jqqegfg-72Zgi2-M542d-37">
          <mxGeometry relative="1" as="geometry" />
        </mxCell>
        <mxCell id="jqqegfg-72Zgi2-M542d-38" value="&quot; Masukkan Jumlah Bilangan Yang Anda Inginkan =&amp;nbsp; &quot;" style="shape=parallelogram;perimeter=parallelogramPerimeter;whiteSpace=wrap;html=1;fixedSize=1;" vertex="1" parent="WIyWlLk6GJQsqaUBKTNV-1">
          <mxGeometry x="145" y="110" width="150" height="50" as="geometry" />
        </mxCell>
      </root>
    </mxGraphModel>
  </diagram>
</mxfile>
